# xmcd
#
# Track frame offsets:
#	150
#	13048
#	33981
#	48037
#	62274
#	83012
#	96808
#	118402
#	138568
#	153542
#	170125
#	186227
#	202632
#	224189
#	244993
#	259881
#	279478
#	307032
#	325194
#	341947
#
# Disc length: 4786 seconds
#
# Revision: 2
# Processed by: cddbd v1.5.2PL0 Copyright (c) Steve Scherf et al.
# Submitted via: EasyCDDAExtractor 2010.6.0.0
#
DISCID=2d12b014
DTITLE=Various Artist - Akella Presents - Country-Blues - vol.31 CD1
DYEAR=2011
DGENRE=Blues
TTITLE0=The NOTTING HILLBILLIES - That's Where I Belong
TTITLE1=MARK KNOPFLER and EMMYLOU HARRIS - This Is Us
TTITLE2=BO RAMSEY - And I Wonder
TTITLE3=JOHN FOGERTY - My Toot Toot
TTITLE4=HANS THEESSINK - Train
TTITLE5=DUKE ROBILLARD - Down Along The Cove
TTITLE6=ALBERT LEE and  HOGAN'S HEROES - If You See Me Getting Smaller
TTITLE7=TIMO GROSS - Travellin 
TTITLE8=BIG HOUSE - Honky Tonk With You
TTITLE9=COLIN JAMES - When I Write The Book
TTITLE10=TOM PRINCIPATO - Jambalay (On The Bayou)
TTITLE11=KEB' MO' - Talk
TTITLE12=GREGG ALLMAN - Floating Bridge
TTITLE13=MICHAEL POWERS - Prodigal Son
TTITLE14=VARGAS BLUES BAND - Deep Blue
TTITLE15=JOHN CAMPBELLJOHN - Do Unto Me
TTITLE16=TONY JOE WHITE - Long Way from the River
TTITLE17=EG KIGHT - I'll Believe It When I Feel It
TTITLE18=DANNY SHIRLEY - Honky Tonk Hero's
TTITLE19=PAT McMANUS - Just Got Back Today
EXTD=
EXTT0=
EXTT1=
EXTT2=
EXTT3=
EXTT4=
EXTT5=
EXTT6=
EXTT7=
EXTT8=
EXTT9=
EXTT10=
EXTT11=
EXTT12=
EXTT13=
EXTT14=
EXTT15=
EXTT16=
EXTT17=
EXTT18=
EXTT19=
PLAYORDER=
